<?xml version="1.0" standalone="no"?>
<!DOCTYPE svg PUBLIC "-//W3C//DTD SVG 20010904//EN"
 "http://www.w3.org/TR/2001/REC-SVG-20010904/DTD/svg10.dtd">
<svg version="1.0" xmlns="http://www.w3.org/2000/svg"
 width="505.000000pt" height="494.000000pt" viewBox="0 0 505.000000 494.000000"
 preserveAspectRatio="xMidYMid meet">

<g transform="translate(0.000000,494.000000) scale(0.100000,-0.100000)"
fill="#000000" stroke="none">
<path d="M2670 4529 c-41 -28 -361 -243 -710 -477 -349 -234 -758 -508 -907
-610 l-273 -184 0 -153 0 -154 38 -26 c94 -66 701 -483 1087 -746 77 -53 231
-158 342 -235 461 -317 503 -345 515 -338 22 12 1028 657 1278 818 52 34 238
153 413 265 l317 204 0 163 0 162 -57 38 c-32 21 -170 115 -308 209 -137 94
-335 229 -440 300 -104 71 -273 185 -375 255 -555 380 -824 560 -835 560 -5 0
-44 -23 -85 -51z m334 -419 c108 -74 347 -237 529 -362 183 -125 366 -250 407
-278 415 -283 585 -402 588 -409 2 -7 -208 -150 -263 -179 -18 -9 -53 11 -250
145 -127 85 -455 306 -730 491 -275 184 -507 341 -516 348 -24 22 -36 18 -114
-38 -254 -182 -829 -590 -884 -629 -36 -25 -149 -105 -251 -178 -101 -72 -189
-130 -196 -129 -24 6 -273 184 -274 195 0 6 51 47 112 90 124 85 210 145 363
251 94 65 366 254 890 618 380 265 333 237 365 217 14 -10 115 -79 224 -153z
m151 -811 c215 -146 492 -334 618 -418 125 -84 227 -157 227 -162 0 -9 -219
-157 -277 -187 -22 -12 -15 -17 -588 375 -77 53 -193 131 -257 175 l-117 80
-63 -45 c-65 -45 -295 -208 -636 -450 -106 -75 -198 -137 -206 -137 -19 0
-281 184 -281 198 0 6 43 42 95 80 52 37 223 160 380 273 157 113 373 269 480
347 127 92 202 141 215 139 11 -2 196 -123 410 -268z m-171 -596 c417 -290
471 -329 470 -338 -1 -11 -683 -455 -699 -455 -14 0 -658 445 -662 457 -2 6
126 102 284 213 158 112 308 218 333 236 25 19 49 34 54 34 4 0 103 -66 220
-147z"/>
<path d="M780 2356 l0 -154 198 -136 c108 -74 211 -144 227 -156 17 -11 140
-96 275 -189 135 -92 317 -217 404 -277 88 -60 196 -134 240 -164 154 -105
451 -308 539 -368 l88 -60 217 142 c119 78 495 328 835 554 l617 412 0 143 c0
79 -3 146 -6 150 -4 3 -377 -242 -830 -544 -723 -483 -826 -549 -844 -539 -20
11 -146 97 -613 418 -257 177 -564 390 -617 428 -19 13 -102 71 -185 127 -82
57 -237 162 -342 235 -106 73 -195 132 -198 132 -3 0 -5 -69 -5 -154z"/>
<path d="M780 1621 c0 -147 0 -150 25 -168 38 -28 74 -53 325 -225 129 -89
341 -234 470 -323 129 -89 300 -206 380 -261 80 -54 278 -190 440 -301 351
-241 327 -233 462 -145 48 31 224 145 390 252 423 271 502 323 510 335 4 5 8
75 8 154 0 122 -2 142 -15 137 -8 -3 -65 -38 -127 -79 -62 -40 -171 -110 -243
-156 -71 -45 -182 -116 -245 -157 -63 -41 -178 -116 -254 -165 -87 -57 -146
-89 -157 -86 -10 3 -58 33 -106 66 -48 34 -187 130 -308 213 -121 83 -312 215
-425 293 -113 78 -299 207 -415 286 -115 80 -261 181 -324 225 -257 178 -371
254 -381 254 -6 0 -10 -52 -10 -149z"/>
</g>
</svg>
