<?xml version="1.0" standalone="no"?>
<!DOCTYPE svg PUBLIC "-//W3C//DTD SVG 20010904//EN"
 "http://www.w3.org/TR/2001/REC-SVG-20010904/DTD/svg10.dtd">
<svg version="1.0" xmlns="http://www.w3.org/2000/svg"
 width="473.000000pt" height="527.000000pt" viewBox="0 0 473.000000 527.000000"
 preserveAspectRatio="xMidYMid meet">

<g transform="translate(0.000000,527.000000) scale(0.100000,-0.100000)"
fill="#000000" stroke="none">
<path d="M2190 5013 c-52 -36 -378 -255 -725 -488 -346 -232 -751 -504 -900
-605 -148 -100 -316 -212 -372 -248 -57 -37 -103 -69 -103 -72 1 -3 65 -48
144 -102 l142 -96 335 232 c184 127 614 426 957 664 371 257 628 430 635 425
17 -10 1543 -1049 1784 -1215 l202 -138 136 86 c74 48 132 91 128 95 -7 5
-1727 1175 -2129 1447 -67 45 -125 82 -130 82 -5 -1 -52 -30 -104 -67z"/>
<path d="M1845 3994 c-236 -168 -589 -419 -782 -556 -194 -138 -353 -255 -353
-259 0 -15 251 -180 263 -172 11 6 329 235 1059 760 125 90 234 166 241 169 8
3 155 -90 328 -207 173 -116 431 -291 574 -387 143 -96 319 -215 391 -265
l132 -89 131 84 c72 45 131 86 131 89 0 4 -107 79 -237 167 -131 88 -510 342
-842 566 -332 223 -604 406 -605 406 0 -1 -194 -138 -431 -306z"/>
<path d="M1999 3274 c-352 -249 -489 -347 -611 -433 -49 -34 -88 -65 -88 -69
0 -6 193 -141 235 -164 8 -5 68 31 167 101 84 60 176 125 203 145 299 211 382
269 393 273 7 3 49 -20 95 -51 137 -95 232 -161 465 -323 155 -107 228 -153
240 -148 27 10 252 156 252 163 0 4 -22 21 -48 39 -26 17 -99 67 -162 110 -63
43 -266 182 -450 307 -184 126 -347 237 -361 247 l-26 18 -304 -215z"/>
</g>
</svg>
